<svg xmlns="http://www.w3.org/2000/svg" width="24" height="24" viewBox="0 0 24 24" fill="none">
<path fill="black" fill-rule="evenodd" clip-rule="evenodd" d="M4.794 4.032c.713.582.98.537 2.32.448l12.628-.76c.268 0 .045-.269-.044-.313L17.6 1.887c-.401-.314-.937-.672-1.963-.582L3.41 2.199c-.446.044-.535.268-.358.447l1.742 1.386Zm.758 2.952v13.325c0 .716.357.984 1.16.94l13.878-.806c.803-.044.893-.537.893-1.118V6.089c0-.58-.223-.894-.715-.85l-14.502.85c-.536.045-.714.314-.714.895Zm13.7.715c.089.402 0 .805-.402.85l-.669.134v9.837c-.58.313-1.116.492-1.562.492-.714 0-.893-.224-1.428-.894l-4.374-6.886v6.662l1.384.314s0 .804-1.117.804l-3.078.18c-.09-.18 0-.627.312-.716l.804-.224V9.443l-1.116-.09c-.09-.402.134-.983.759-1.028l3.302-.223 4.552 6.975v-6.17l-1.16-.134c-.09-.493.267-.85.713-.895l3.08-.18ZM2.383.992l12.718-.94c1.562-.134 1.964-.044 2.946.671l4.06 2.862c.67.492.893.626.893 1.163v15.695c0 .984-.357 1.566-1.607 1.655l-14.77.894c-.937.045-1.384-.09-1.875-.716l-2.99-3.89C1.223 17.67 1 17.134 1 16.508V2.556c0-.804.357-1.475 1.383-1.564Z" />
</svg>
